<mxfile host="app.diagrams.net" agent="Mozilla/5.0 (X11; Ubuntu; Linux x86_64; rv:132.0) Gecko/20100101 Firefox/132.0" version="24.8.4">
  <diagram name="Page-1" id="ykp_BIXuBFZgbCZ1GwIz">
    <mxGraphModel dx="2135" dy="134" grid="1" gridSize="10" guides="1" tooltips="1" connect="1" arrows="1" fold="1" page="1" pageScale="1" pageWidth="100" pageHeight="200" math="1" shadow="0">
      <root>
        <mxCell id="0" />
        <mxCell id="1" parent="0" />
        <mxCell id="WDnY_UIXsADcIeX3w84D-1" value="" style="rounded=1;whiteSpace=wrap;html=1;strokeWidth=1;fillColor=#F0F0F0;fontColor=#333333;strokeColor=#000000;" vertex="1" parent="1">
          <mxGeometry x="-936" y="410" width="910" height="360" as="geometry" />
        </mxCell>
        <mxCell id="WDnY_UIXsADcIeX3w84D-2" value="" style="rounded=1;whiteSpace=wrap;html=1;fillColor=#C6C6C7;rotation=0;strokeColor=none;" vertex="1" parent="1">
          <mxGeometry x="-816" y="440" width="202" height="190" as="geometry" />
        </mxCell>
        <mxCell id="WDnY_UIXsADcIeX3w84D-3" value="" style="rounded=1;whiteSpace=wrap;html=1;strokeWidth=1;fillColor=#DBDBDB;" vertex="1" parent="1">
          <mxGeometry x="-824" y="430" width="418" height="210" as="geometry" />
        </mxCell>
        <mxCell id="WDnY_UIXsADcIeX3w84D-4" value="" style="shape=cube;whiteSpace=wrap;html=1;boundedLbl=1;backgroundOutline=1;darkOpacity=0.05;darkOpacity2=0.1;size=0;flipH=1;fillColor=#9A9B9E;rotation=90;" vertex="1" parent="1">
          <mxGeometry x="-893" y="487.5" width="12.5" height="85" as="geometry" />
        </mxCell>
        <mxCell id="WDnY_UIXsADcIeX3w84D-5" value="&lt;font style=&quot;font-size: 12px;&quot;&gt;$$(1,k)$$&lt;/font&gt;" style="text;whiteSpace=wrap;html=1;" vertex="1" parent="1">
          <mxGeometry x="-893" y="530" width="40" height="50" as="geometry" />
        </mxCell>
        <mxCell id="WDnY_UIXsADcIeX3w84D-6" value="&lt;font style=&quot;font-size: 24px;&quot;&gt;$$1$$&lt;/font&gt;" style="rounded=1;whiteSpace=wrap;html=1;fillColor=#C6C6C7;rotation=0;strokeColor=none;" vertex="1" parent="1">
          <mxGeometry x="-804" y="440.82" width="180" height="89.18" as="geometry" />
        </mxCell>
        <mxCell id="WDnY_UIXsADcIeX3w84D-7" value="&lt;font style=&quot;font-size: 12px;&quot;&gt;$$\textbf{p}_0$$&lt;/font&gt;" style="text;whiteSpace=wrap;html=1;" vertex="1" parent="1">
          <mxGeometry x="-903.29" y="482" width="20.29" height="40" as="geometry" />
        </mxCell>
        <mxCell id="WDnY_UIXsADcIeX3w84D-8" value="$${p_0}_{max} = \underset{\textbf{i} \in \{0,...,k\}}{max} \hspace{1mm} p_i$$" style="rounded=1;whiteSpace=wrap;html=1;fillColor=#C6C6C7;rotation=0;strokeColor=none;" vertex="1" parent="1">
          <mxGeometry x="-804" y="538" width="180" height="88.36" as="geometry" />
        </mxCell>
        <mxCell id="WDnY_UIXsADcIeX3w84D-9" value="$$u_0 = 1 - {p_0}_{max}$$ " style="rounded=1;whiteSpace=wrap;html=1;fillColor=#C6C6C7;rotation=0;strokeColor=none;" vertex="1" parent="1">
          <mxGeometry x="-606" y="460" width="180" height="140" as="geometry" />
        </mxCell>
        <mxCell id="WDnY_UIXsADcIeX3w84D-10" value="" style="shape=table;startSize=0;container=1;collapsible=0;childLayout=tableLayout;fillColor=#C6C6C7;" vertex="1" parent="1">
          <mxGeometry x="-84" y="490.82000000000005" width="18" height="160" as="geometry" />
        </mxCell>
        <mxCell id="WDnY_UIXsADcIeX3w84D-11" value="" style="shape=tableRow;horizontal=0;startSize=0;swimlaneHead=0;swimlaneBody=0;strokeColor=inherit;top=0;left=0;bottom=0;right=0;collapsible=0;dropTarget=0;fillColor=none;points=[[0,0.5],[1,0.5]];portConstraint=eastwest;" vertex="1" parent="WDnY_UIXsADcIeX3w84D-10">
          <mxGeometry width="18" height="11" as="geometry" />
        </mxCell>
        <mxCell id="WDnY_UIXsADcIeX3w84D-12" value="" style="shape=partialRectangle;html=1;whiteSpace=wrap;connectable=0;strokeColor=inherit;overflow=hidden;fillColor=none;top=0;left=0;bottom=0;right=0;pointerEvents=1;" vertex="1" parent="WDnY_UIXsADcIeX3w84D-11">
          <mxGeometry width="18" height="11" as="geometry">
            <mxRectangle width="18" height="11" as="alternateBounds" />
          </mxGeometry>
        </mxCell>
        <mxCell id="WDnY_UIXsADcIeX3w84D-13" value="" style="shape=tableRow;horizontal=0;startSize=0;swimlaneHead=0;swimlaneBody=0;strokeColor=inherit;top=0;left=0;bottom=0;right=0;collapsible=0;dropTarget=0;fillColor=none;points=[[0,0.5],[1,0.5]];portConstraint=eastwest;" vertex="1" parent="WDnY_UIXsADcIeX3w84D-10">
          <mxGeometry y="11" width="18" height="9" as="geometry" />
        </mxCell>
        <mxCell id="WDnY_UIXsADcIeX3w84D-14" value="" style="shape=partialRectangle;html=1;whiteSpace=wrap;connectable=0;strokeColor=inherit;overflow=hidden;fillColor=none;top=0;left=0;bottom=0;right=0;pointerEvents=1;" vertex="1" parent="WDnY_UIXsADcIeX3w84D-13">
          <mxGeometry width="18" height="9" as="geometry">
            <mxRectangle width="18" height="9" as="alternateBounds" />
          </mxGeometry>
        </mxCell>
        <mxCell id="WDnY_UIXsADcIeX3w84D-15" value="" style="shape=tableRow;horizontal=0;startSize=0;swimlaneHead=0;swimlaneBody=0;strokeColor=inherit;top=0;left=0;bottom=0;right=0;collapsible=0;dropTarget=0;fillColor=none;points=[[0,0.5],[1,0.5]];portConstraint=eastwest;" vertex="1" parent="WDnY_UIXsADcIeX3w84D-10">
          <mxGeometry y="20" width="18" height="10" as="geometry" />
        </mxCell>
        <mxCell id="WDnY_UIXsADcIeX3w84D-16" value="" style="shape=partialRectangle;html=1;whiteSpace=wrap;connectable=0;strokeColor=inherit;overflow=hidden;fillColor=none;top=0;left=0;bottom=0;right=0;pointerEvents=1;" vertex="1" parent="WDnY_UIXsADcIeX3w84D-15">
          <mxGeometry width="18" height="10" as="geometry">
            <mxRectangle width="18" height="10" as="alternateBounds" />
          </mxGeometry>
        </mxCell>
        <mxCell id="WDnY_UIXsADcIeX3w84D-17" value="" style="shape=tableRow;horizontal=0;startSize=0;swimlaneHead=0;swimlaneBody=0;strokeColor=inherit;top=0;left=0;bottom=0;right=0;collapsible=0;dropTarget=0;fillColor=none;points=[[0,0.5],[1,0.5]];portConstraint=eastwest;" vertex="1" parent="WDnY_UIXsADcIeX3w84D-10">
          <mxGeometry y="30" width="18" height="11" as="geometry" />
        </mxCell>
        <mxCell id="WDnY_UIXsADcIeX3w84D-18" value="" style="shape=partialRectangle;html=1;whiteSpace=wrap;connectable=0;strokeColor=inherit;overflow=hidden;fillColor=none;top=0;left=0;bottom=0;right=0;pointerEvents=1;" vertex="1" parent="WDnY_UIXsADcIeX3w84D-17">
          <mxGeometry width="18" height="11" as="geometry">
            <mxRectangle width="18" height="11" as="alternateBounds" />
          </mxGeometry>
        </mxCell>
        <mxCell id="WDnY_UIXsADcIeX3w84D-19" value="" style="shape=tableRow;horizontal=0;startSize=0;swimlaneHead=0;swimlaneBody=0;strokeColor=inherit;top=0;left=0;bottom=0;right=0;collapsible=0;dropTarget=0;fillColor=none;points=[[0,0.5],[1,0.5]];portConstraint=eastwest;" vertex="1" parent="WDnY_UIXsADcIeX3w84D-10">
          <mxGeometry y="41" width="18" height="9" as="geometry" />
        </mxCell>
        <mxCell id="WDnY_UIXsADcIeX3w84D-20" value="" style="shape=partialRectangle;html=1;whiteSpace=wrap;connectable=0;strokeColor=inherit;overflow=hidden;fillColor=none;top=0;left=0;bottom=0;right=0;pointerEvents=1;" vertex="1" parent="WDnY_UIXsADcIeX3w84D-19">
          <mxGeometry width="18" height="9" as="geometry">
            <mxRectangle width="18" height="9" as="alternateBounds" />
          </mxGeometry>
        </mxCell>
        <mxCell id="WDnY_UIXsADcIeX3w84D-21" value="" style="shape=tableRow;horizontal=0;startSize=0;swimlaneHead=0;swimlaneBody=0;strokeColor=inherit;top=0;left=0;bottom=0;right=0;collapsible=0;dropTarget=0;fillColor=none;points=[[0,0.5],[1,0.5]];portConstraint=eastwest;" vertex="1" parent="WDnY_UIXsADcIeX3w84D-10">
          <mxGeometry y="50" width="18" height="10" as="geometry" />
        </mxCell>
        <mxCell id="WDnY_UIXsADcIeX3w84D-22" value="" style="shape=partialRectangle;html=1;whiteSpace=wrap;connectable=0;strokeColor=inherit;overflow=hidden;fillColor=none;top=0;left=0;bottom=0;right=0;pointerEvents=1;" vertex="1" parent="WDnY_UIXsADcIeX3w84D-21">
          <mxGeometry width="18" height="10" as="geometry">
            <mxRectangle width="18" height="10" as="alternateBounds" />
          </mxGeometry>
        </mxCell>
        <mxCell id="WDnY_UIXsADcIeX3w84D-23" value="" style="shape=tableRow;horizontal=0;startSize=0;swimlaneHead=0;swimlaneBody=0;strokeColor=inherit;top=0;left=0;bottom=0;right=0;collapsible=0;dropTarget=0;fillColor=none;points=[[0,0.5],[1,0.5]];portConstraint=eastwest;" vertex="1" parent="WDnY_UIXsADcIeX3w84D-10">
          <mxGeometry y="60" width="18" height="9" as="geometry" />
        </mxCell>
        <mxCell id="WDnY_UIXsADcIeX3w84D-24" value="" style="shape=partialRectangle;html=1;whiteSpace=wrap;connectable=0;strokeColor=inherit;overflow=hidden;fillColor=none;top=0;left=0;bottom=0;right=0;pointerEvents=1;" vertex="1" parent="WDnY_UIXsADcIeX3w84D-23">
          <mxGeometry width="18" height="9" as="geometry">
            <mxRectangle width="18" height="9" as="alternateBounds" />
          </mxGeometry>
        </mxCell>
        <mxCell id="WDnY_UIXsADcIeX3w84D-25" value="" style="shape=tableRow;horizontal=0;startSize=0;swimlaneHead=0;swimlaneBody=0;strokeColor=inherit;top=0;left=0;bottom=0;right=0;collapsible=0;dropTarget=0;fillColor=none;points=[[0,0.5],[1,0.5]];portConstraint=eastwest;" vertex="1" parent="WDnY_UIXsADcIeX3w84D-10">
          <mxGeometry y="69" width="18" height="11" as="geometry" />
        </mxCell>
        <mxCell id="WDnY_UIXsADcIeX3w84D-26" value="" style="shape=partialRectangle;html=1;whiteSpace=wrap;connectable=0;strokeColor=inherit;overflow=hidden;fillColor=none;top=0;left=0;bottom=0;right=0;pointerEvents=1;" vertex="1" parent="WDnY_UIXsADcIeX3w84D-25">
          <mxGeometry width="18" height="11" as="geometry">
            <mxRectangle width="18" height="11" as="alternateBounds" />
          </mxGeometry>
        </mxCell>
        <mxCell id="WDnY_UIXsADcIeX3w84D-27" value="" style="shape=tableRow;horizontal=0;startSize=0;swimlaneHead=0;swimlaneBody=0;strokeColor=inherit;top=0;left=0;bottom=0;right=0;collapsible=0;dropTarget=0;fillColor=none;points=[[0,0.5],[1,0.5]];portConstraint=eastwest;" vertex="1" parent="WDnY_UIXsADcIeX3w84D-10">
          <mxGeometry y="80" width="18" height="11" as="geometry" />
        </mxCell>
        <mxCell id="WDnY_UIXsADcIeX3w84D-28" value="" style="shape=partialRectangle;html=1;whiteSpace=wrap;connectable=0;strokeColor=inherit;overflow=hidden;fillColor=none;top=0;left=0;bottom=0;right=0;pointerEvents=1;" vertex="1" parent="WDnY_UIXsADcIeX3w84D-27">
          <mxGeometry width="18" height="11" as="geometry">
            <mxRectangle width="18" height="11" as="alternateBounds" />
          </mxGeometry>
        </mxCell>
        <mxCell id="WDnY_UIXsADcIeX3w84D-29" value="" style="shape=tableRow;horizontal=0;startSize=0;swimlaneHead=0;swimlaneBody=0;strokeColor=inherit;top=0;left=0;bottom=0;right=0;collapsible=0;dropTarget=0;fillColor=none;points=[[0,0.5],[1,0.5]];portConstraint=eastwest;" vertex="1" parent="WDnY_UIXsADcIeX3w84D-10">
          <mxGeometry y="91" width="18" height="9" as="geometry" />
        </mxCell>
        <mxCell id="WDnY_UIXsADcIeX3w84D-30" value="" style="shape=partialRectangle;html=1;whiteSpace=wrap;connectable=0;strokeColor=inherit;overflow=hidden;fillColor=none;top=0;left=0;bottom=0;right=0;pointerEvents=1;" vertex="1" parent="WDnY_UIXsADcIeX3w84D-29">
          <mxGeometry width="18" height="9" as="geometry">
            <mxRectangle width="18" height="9" as="alternateBounds" />
          </mxGeometry>
        </mxCell>
        <mxCell id="WDnY_UIXsADcIeX3w84D-31" value="" style="shape=tableRow;horizontal=0;startSize=0;swimlaneHead=0;swimlaneBody=0;strokeColor=inherit;top=0;left=0;bottom=0;right=0;collapsible=0;dropTarget=0;fillColor=none;points=[[0,0.5],[1,0.5]];portConstraint=eastwest;" vertex="1" parent="WDnY_UIXsADcIeX3w84D-10">
          <mxGeometry y="100" width="18" height="10" as="geometry" />
        </mxCell>
        <mxCell id="WDnY_UIXsADcIeX3w84D-32" value="" style="shape=partialRectangle;html=1;whiteSpace=wrap;connectable=0;strokeColor=inherit;overflow=hidden;fillColor=none;top=0;left=0;bottom=0;right=0;pointerEvents=1;" vertex="1" parent="WDnY_UIXsADcIeX3w84D-31">
          <mxGeometry width="18" height="10" as="geometry">
            <mxRectangle width="18" height="10" as="alternateBounds" />
          </mxGeometry>
        </mxCell>
        <mxCell id="WDnY_UIXsADcIeX3w84D-33" value="" style="shape=tableRow;horizontal=0;startSize=0;swimlaneHead=0;swimlaneBody=0;strokeColor=inherit;top=0;left=0;bottom=0;right=0;collapsible=0;dropTarget=0;fillColor=none;points=[[0,0.5],[1,0.5]];portConstraint=eastwest;" vertex="1" parent="WDnY_UIXsADcIeX3w84D-10">
          <mxGeometry y="110" width="18" height="11" as="geometry" />
        </mxCell>
        <mxCell id="WDnY_UIXsADcIeX3w84D-34" value="" style="shape=partialRectangle;html=1;whiteSpace=wrap;connectable=0;strokeColor=inherit;overflow=hidden;fillColor=none;top=0;left=0;bottom=0;right=0;pointerEvents=1;" vertex="1" parent="WDnY_UIXsADcIeX3w84D-33">
          <mxGeometry width="18" height="11" as="geometry">
            <mxRectangle width="18" height="11" as="alternateBounds" />
          </mxGeometry>
        </mxCell>
        <mxCell id="WDnY_UIXsADcIeX3w84D-35" value="" style="shape=tableRow;horizontal=0;startSize=0;swimlaneHead=0;swimlaneBody=0;strokeColor=inherit;top=0;left=0;bottom=0;right=0;collapsible=0;dropTarget=0;fillColor=none;points=[[0,0.5],[1,0.5]];portConstraint=eastwest;" vertex="1" parent="WDnY_UIXsADcIeX3w84D-10">
          <mxGeometry y="121" width="18" height="9" as="geometry" />
        </mxCell>
        <mxCell id="WDnY_UIXsADcIeX3w84D-36" value="" style="shape=partialRectangle;html=1;whiteSpace=wrap;connectable=0;strokeColor=inherit;overflow=hidden;fillColor=none;top=0;left=0;bottom=0;right=0;pointerEvents=1;" vertex="1" parent="WDnY_UIXsADcIeX3w84D-35">
          <mxGeometry width="18" height="9" as="geometry">
            <mxRectangle width="18" height="9" as="alternateBounds" />
          </mxGeometry>
        </mxCell>
        <mxCell id="WDnY_UIXsADcIeX3w84D-37" value="" style="shape=tableRow;horizontal=0;startSize=0;swimlaneHead=0;swimlaneBody=0;strokeColor=inherit;top=0;left=0;bottom=0;right=0;collapsible=0;dropTarget=0;fillColor=none;points=[[0,0.5],[1,0.5]];portConstraint=eastwest;" vertex="1" parent="WDnY_UIXsADcIeX3w84D-10">
          <mxGeometry y="130" width="18" height="10" as="geometry" />
        </mxCell>
        <mxCell id="WDnY_UIXsADcIeX3w84D-38" value="" style="shape=partialRectangle;html=1;whiteSpace=wrap;connectable=0;strokeColor=inherit;overflow=hidden;fillColor=none;top=0;left=0;bottom=0;right=0;pointerEvents=1;" vertex="1" parent="WDnY_UIXsADcIeX3w84D-37">
          <mxGeometry width="18" height="10" as="geometry">
            <mxRectangle width="18" height="10" as="alternateBounds" />
          </mxGeometry>
        </mxCell>
        <mxCell id="WDnY_UIXsADcIeX3w84D-39" value="" style="shape=tableRow;horizontal=0;startSize=0;swimlaneHead=0;swimlaneBody=0;strokeColor=inherit;top=0;left=0;bottom=0;right=0;collapsible=0;dropTarget=0;fillColor=none;points=[[0,0.5],[1,0.5]];portConstraint=eastwest;" vertex="1" parent="WDnY_UIXsADcIeX3w84D-10">
          <mxGeometry y="140" width="18" height="9" as="geometry" />
        </mxCell>
        <mxCell id="WDnY_UIXsADcIeX3w84D-40" value="" style="shape=partialRectangle;html=1;whiteSpace=wrap;connectable=0;strokeColor=inherit;overflow=hidden;fillColor=none;top=0;left=0;bottom=0;right=0;pointerEvents=1;" vertex="1" parent="WDnY_UIXsADcIeX3w84D-39">
          <mxGeometry width="18" height="9" as="geometry">
            <mxRectangle width="18" height="9" as="alternateBounds" />
          </mxGeometry>
        </mxCell>
        <mxCell id="WDnY_UIXsADcIeX3w84D-41" value="" style="shape=tableRow;horizontal=0;startSize=0;swimlaneHead=0;swimlaneBody=0;strokeColor=inherit;top=0;left=0;bottom=0;right=0;collapsible=0;dropTarget=0;fillColor=none;points=[[0,0.5],[1,0.5]];portConstraint=eastwest;" vertex="1" parent="WDnY_UIXsADcIeX3w84D-10">
          <mxGeometry y="149" width="18" height="11" as="geometry" />
        </mxCell>
        <mxCell id="WDnY_UIXsADcIeX3w84D-42" value="" style="shape=partialRectangle;html=1;whiteSpace=wrap;connectable=0;strokeColor=inherit;overflow=hidden;fillColor=none;top=0;left=0;bottom=0;right=0;pointerEvents=1;" vertex="1" parent="WDnY_UIXsADcIeX3w84D-41">
          <mxGeometry width="18" height="11" as="geometry">
            <mxRectangle width="18" height="11" as="alternateBounds" />
          </mxGeometry>
        </mxCell>
        <mxCell id="WDnY_UIXsADcIeX3w84D-43" value="" style="endArrow=none;dashed=1;html=1;dashPattern=1 3;strokeWidth=2;rounded=0;" edge="1" parent="1">
          <mxGeometry width="50" height="50" relative="1" as="geometry">
            <mxPoint x="-73.43000000000004" y="685" as="sourcePoint" />
            <mxPoint x="-73.43000000000004" y="655" as="targetPoint" />
          </mxGeometry>
        </mxCell>
        <mxCell id="WDnY_UIXsADcIeX3w84D-44" value="" style="shape=table;startSize=0;container=1;collapsible=0;childLayout=tableLayout;fillColor=#C6C6C7;" vertex="1" parent="1">
          <mxGeometry x="-366" y="690.82" width="60" height="59" as="geometry" />
        </mxCell>
        <mxCell id="WDnY_UIXsADcIeX3w84D-45" value="" style="shape=tableRow;horizontal=0;startSize=0;swimlaneHead=0;swimlaneBody=0;strokeColor=inherit;top=0;left=0;bottom=0;right=0;collapsible=0;dropTarget=0;fillColor=none;points=[[0,0.5],[1,0.5]];portConstraint=eastwest;" vertex="1" parent="WDnY_UIXsADcIeX3w84D-44">
          <mxGeometry width="60" height="11" as="geometry" />
        </mxCell>
        <mxCell id="WDnY_UIXsADcIeX3w84D-46" value="" style="shape=partialRectangle;html=1;whiteSpace=wrap;connectable=0;strokeColor=inherit;overflow=hidden;fillColor=none;top=0;left=0;bottom=0;right=0;pointerEvents=1;" vertex="1" parent="WDnY_UIXsADcIeX3w84D-45">
          <mxGeometry width="60" height="11" as="geometry">
            <mxRectangle width="60" height="11" as="alternateBounds" />
          </mxGeometry>
        </mxCell>
        <mxCell id="WDnY_UIXsADcIeX3w84D-47" value="" style="shape=tableRow;horizontal=0;startSize=0;swimlaneHead=0;swimlaneBody=0;strokeColor=inherit;top=0;left=0;bottom=0;right=0;collapsible=0;dropTarget=0;fillColor=none;points=[[0,0.5],[1,0.5]];portConstraint=eastwest;" vertex="1" parent="WDnY_UIXsADcIeX3w84D-44">
          <mxGeometry y="11" width="60" height="9" as="geometry" />
        </mxCell>
        <mxCell id="WDnY_UIXsADcIeX3w84D-48" value="" style="shape=partialRectangle;html=1;whiteSpace=wrap;connectable=0;strokeColor=inherit;overflow=hidden;fillColor=none;top=0;left=0;bottom=0;right=0;pointerEvents=1;" vertex="1" parent="WDnY_UIXsADcIeX3w84D-47">
          <mxGeometry width="60" height="9" as="geometry">
            <mxRectangle width="60" height="9" as="alternateBounds" />
          </mxGeometry>
        </mxCell>
        <mxCell id="WDnY_UIXsADcIeX3w84D-49" value="" style="shape=tableRow;horizontal=0;startSize=0;swimlaneHead=0;swimlaneBody=0;strokeColor=inherit;top=0;left=0;bottom=0;right=0;collapsible=0;dropTarget=0;fillColor=none;points=[[0,0.5],[1,0.5]];portConstraint=eastwest;" vertex="1" parent="WDnY_UIXsADcIeX3w84D-44">
          <mxGeometry y="20" width="60" height="10" as="geometry" />
        </mxCell>
        <mxCell id="WDnY_UIXsADcIeX3w84D-50" value="" style="shape=partialRectangle;html=1;whiteSpace=wrap;connectable=0;strokeColor=inherit;overflow=hidden;fillColor=none;top=0;left=0;bottom=0;right=0;pointerEvents=1;" vertex="1" parent="WDnY_UIXsADcIeX3w84D-49">
          <mxGeometry width="60" height="10" as="geometry">
            <mxRectangle width="60" height="10" as="alternateBounds" />
          </mxGeometry>
        </mxCell>
        <mxCell id="WDnY_UIXsADcIeX3w84D-51" value="" style="shape=tableRow;horizontal=0;startSize=0;swimlaneHead=0;swimlaneBody=0;strokeColor=inherit;top=0;left=0;bottom=0;right=0;collapsible=0;dropTarget=0;fillColor=none;points=[[0,0.5],[1,0.5]];portConstraint=eastwest;" vertex="1" parent="WDnY_UIXsADcIeX3w84D-44">
          <mxGeometry y="30" width="60" height="11" as="geometry" />
        </mxCell>
        <mxCell id="WDnY_UIXsADcIeX3w84D-52" value="" style="shape=partialRectangle;html=1;whiteSpace=wrap;connectable=0;strokeColor=inherit;overflow=hidden;fillColor=none;top=0;left=0;bottom=0;right=0;pointerEvents=1;" vertex="1" parent="WDnY_UIXsADcIeX3w84D-51">
          <mxGeometry width="60" height="11" as="geometry">
            <mxRectangle width="60" height="11" as="alternateBounds" />
          </mxGeometry>
        </mxCell>
        <mxCell id="WDnY_UIXsADcIeX3w84D-53" value="" style="shape=tableRow;horizontal=0;startSize=0;swimlaneHead=0;swimlaneBody=0;strokeColor=inherit;top=0;left=0;bottom=0;right=0;collapsible=0;dropTarget=0;fillColor=none;points=[[0,0.5],[1,0.5]];portConstraint=eastwest;" vertex="1" parent="WDnY_UIXsADcIeX3w84D-44">
          <mxGeometry y="41" width="60" height="9" as="geometry" />
        </mxCell>
        <mxCell id="WDnY_UIXsADcIeX3w84D-54" value="" style="shape=partialRectangle;html=1;whiteSpace=wrap;connectable=0;strokeColor=inherit;overflow=hidden;fillColor=none;top=0;left=0;bottom=0;right=0;pointerEvents=1;" vertex="1" parent="WDnY_UIXsADcIeX3w84D-53">
          <mxGeometry width="60" height="9" as="geometry">
            <mxRectangle width="60" height="9" as="alternateBounds" />
          </mxGeometry>
        </mxCell>
        <mxCell id="WDnY_UIXsADcIeX3w84D-55" value="" style="shape=tableRow;horizontal=0;startSize=0;swimlaneHead=0;swimlaneBody=0;strokeColor=inherit;top=0;left=0;bottom=0;right=0;collapsible=0;dropTarget=0;fillColor=none;points=[[0,0.5],[1,0.5]];portConstraint=eastwest;" vertex="1" parent="WDnY_UIXsADcIeX3w84D-44">
          <mxGeometry y="50" width="60" height="9" as="geometry" />
        </mxCell>
        <mxCell id="WDnY_UIXsADcIeX3w84D-56" value="" style="shape=partialRectangle;html=1;whiteSpace=wrap;connectable=0;strokeColor=inherit;overflow=hidden;fillColor=none;top=0;left=0;bottom=0;right=0;pointerEvents=1;" vertex="1" parent="WDnY_UIXsADcIeX3w84D-55">
          <mxGeometry width="60" height="9" as="geometry">
            <mxRectangle width="60" height="9" as="alternateBounds" />
          </mxGeometry>
        </mxCell>
        <mxCell id="WDnY_UIXsADcIeX3w84D-57" value="" style="endArrow=none;dashed=1;html=1;dashPattern=1 3;strokeWidth=2;rounded=0;" edge="1" parent="1">
          <mxGeometry width="50" height="50" relative="1" as="geometry">
            <mxPoint x="-716" y="750" as="sourcePoint" />
            <mxPoint x="-716" y="660" as="targetPoint" />
          </mxGeometry>
        </mxCell>
        <mxCell id="WDnY_UIXsADcIeX3w84D-58" value="" style="endArrow=none;dashed=1;html=1;dashPattern=1 3;strokeWidth=2;rounded=0;" edge="1" parent="1">
          <mxGeometry width="50" height="50" relative="1" as="geometry">
            <mxPoint x="-516.45" y="750" as="sourcePoint" />
            <mxPoint x="-516.45" y="660" as="targetPoint" />
          </mxGeometry>
        </mxCell>
        <mxCell id="WDnY_UIXsADcIeX3w84D-59" value="" style="rounded=1;whiteSpace=wrap;html=1;strokeWidth=1;fillColor=#DBDBDB;" vertex="1" parent="1">
          <mxGeometry x="-266" y="430" width="140" height="210" as="geometry" />
        </mxCell>
        <mxCell id="WDnY_UIXsADcIeX3w84D-60" value="$$argsort$$ " style="rounded=1;whiteSpace=wrap;html=1;fillColor=#C6C6C7;rotation=0;strokeColor=none;" vertex="1" parent="1">
          <mxGeometry x="-246" y="465" width="100" height="140" as="geometry" />
        </mxCell>
        <mxCell id="WDnY_UIXsADcIeX3w84D-61" value="" style="shape=table;startSize=0;container=1;collapsible=0;childLayout=tableLayout;fillColor=#C6C6C7;" vertex="1" parent="1">
          <mxGeometry x="-366" y="490.82000000000005" width="60" height="160" as="geometry" />
        </mxCell>
        <mxCell id="WDnY_UIXsADcIeX3w84D-62" value="" style="shape=tableRow;horizontal=0;startSize=0;swimlaneHead=0;swimlaneBody=0;strokeColor=inherit;top=0;left=0;bottom=0;right=0;collapsible=0;dropTarget=0;fillColor=none;points=[[0,0.5],[1,0.5]];portConstraint=eastwest;" vertex="1" parent="WDnY_UIXsADcIeX3w84D-61">
          <mxGeometry width="60" height="11" as="geometry" />
        </mxCell>
        <mxCell id="WDnY_UIXsADcIeX3w84D-63" value="" style="shape=partialRectangle;html=1;whiteSpace=wrap;connectable=0;strokeColor=inherit;overflow=hidden;fillColor=none;top=0;left=0;bottom=0;right=0;pointerEvents=1;" vertex="1" parent="WDnY_UIXsADcIeX3w84D-62">
          <mxGeometry width="60" height="11" as="geometry">
            <mxRectangle width="60" height="11" as="alternateBounds" />
          </mxGeometry>
        </mxCell>
        <mxCell id="WDnY_UIXsADcIeX3w84D-64" value="" style="shape=tableRow;horizontal=0;startSize=0;swimlaneHead=0;swimlaneBody=0;strokeColor=inherit;top=0;left=0;bottom=0;right=0;collapsible=0;dropTarget=0;fillColor=none;points=[[0,0.5],[1,0.5]];portConstraint=eastwest;" vertex="1" parent="WDnY_UIXsADcIeX3w84D-61">
          <mxGeometry y="11" width="60" height="9" as="geometry" />
        </mxCell>
        <mxCell id="WDnY_UIXsADcIeX3w84D-65" value="" style="shape=partialRectangle;html=1;whiteSpace=wrap;connectable=0;strokeColor=inherit;overflow=hidden;fillColor=none;top=0;left=0;bottom=0;right=0;pointerEvents=1;" vertex="1" parent="WDnY_UIXsADcIeX3w84D-64">
          <mxGeometry width="60" height="9" as="geometry">
            <mxRectangle width="60" height="9" as="alternateBounds" />
          </mxGeometry>
        </mxCell>
        <mxCell id="WDnY_UIXsADcIeX3w84D-66" value="" style="shape=tableRow;horizontal=0;startSize=0;swimlaneHead=0;swimlaneBody=0;strokeColor=inherit;top=0;left=0;bottom=0;right=0;collapsible=0;dropTarget=0;fillColor=none;points=[[0,0.5],[1,0.5]];portConstraint=eastwest;" vertex="1" parent="WDnY_UIXsADcIeX3w84D-61">
          <mxGeometry y="20" width="60" height="10" as="geometry" />
        </mxCell>
        <mxCell id="WDnY_UIXsADcIeX3w84D-67" value="" style="shape=partialRectangle;html=1;whiteSpace=wrap;connectable=0;strokeColor=inherit;overflow=hidden;fillColor=none;top=0;left=0;bottom=0;right=0;pointerEvents=1;" vertex="1" parent="WDnY_UIXsADcIeX3w84D-66">
          <mxGeometry width="60" height="10" as="geometry">
            <mxRectangle width="60" height="10" as="alternateBounds" />
          </mxGeometry>
        </mxCell>
        <mxCell id="WDnY_UIXsADcIeX3w84D-68" value="" style="shape=tableRow;horizontal=0;startSize=0;swimlaneHead=0;swimlaneBody=0;strokeColor=inherit;top=0;left=0;bottom=0;right=0;collapsible=0;dropTarget=0;fillColor=none;points=[[0,0.5],[1,0.5]];portConstraint=eastwest;" vertex="1" parent="WDnY_UIXsADcIeX3w84D-61">
          <mxGeometry y="30" width="60" height="11" as="geometry" />
        </mxCell>
        <mxCell id="WDnY_UIXsADcIeX3w84D-69" value="" style="shape=partialRectangle;html=1;whiteSpace=wrap;connectable=0;strokeColor=inherit;overflow=hidden;fillColor=none;top=0;left=0;bottom=0;right=0;pointerEvents=1;" vertex="1" parent="WDnY_UIXsADcIeX3w84D-68">
          <mxGeometry width="60" height="11" as="geometry">
            <mxRectangle width="60" height="11" as="alternateBounds" />
          </mxGeometry>
        </mxCell>
        <mxCell id="WDnY_UIXsADcIeX3w84D-70" value="" style="shape=tableRow;horizontal=0;startSize=0;swimlaneHead=0;swimlaneBody=0;strokeColor=inherit;top=0;left=0;bottom=0;right=0;collapsible=0;dropTarget=0;fillColor=none;points=[[0,0.5],[1,0.5]];portConstraint=eastwest;" vertex="1" parent="WDnY_UIXsADcIeX3w84D-61">
          <mxGeometry y="41" width="60" height="9" as="geometry" />
        </mxCell>
        <mxCell id="WDnY_UIXsADcIeX3w84D-71" value="" style="shape=partialRectangle;html=1;whiteSpace=wrap;connectable=0;strokeColor=inherit;overflow=hidden;fillColor=none;top=0;left=0;bottom=0;right=0;pointerEvents=1;" vertex="1" parent="WDnY_UIXsADcIeX3w84D-70">
          <mxGeometry width="60" height="9" as="geometry">
            <mxRectangle width="60" height="9" as="alternateBounds" />
          </mxGeometry>
        </mxCell>
        <mxCell id="WDnY_UIXsADcIeX3w84D-72" value="" style="shape=tableRow;horizontal=0;startSize=0;swimlaneHead=0;swimlaneBody=0;strokeColor=inherit;top=0;left=0;bottom=0;right=0;collapsible=0;dropTarget=0;fillColor=none;points=[[0,0.5],[1,0.5]];portConstraint=eastwest;" vertex="1" parent="WDnY_UIXsADcIeX3w84D-61">
          <mxGeometry y="50" width="60" height="10" as="geometry" />
        </mxCell>
        <mxCell id="WDnY_UIXsADcIeX3w84D-73" value="" style="shape=partialRectangle;html=1;whiteSpace=wrap;connectable=0;strokeColor=inherit;overflow=hidden;fillColor=none;top=0;left=0;bottom=0;right=0;pointerEvents=1;" vertex="1" parent="WDnY_UIXsADcIeX3w84D-72">
          <mxGeometry width="60" height="10" as="geometry">
            <mxRectangle width="60" height="10" as="alternateBounds" />
          </mxGeometry>
        </mxCell>
        <mxCell id="WDnY_UIXsADcIeX3w84D-74" value="" style="shape=tableRow;horizontal=0;startSize=0;swimlaneHead=0;swimlaneBody=0;strokeColor=inherit;top=0;left=0;bottom=0;right=0;collapsible=0;dropTarget=0;fillColor=none;points=[[0,0.5],[1,0.5]];portConstraint=eastwest;" vertex="1" parent="WDnY_UIXsADcIeX3w84D-61">
          <mxGeometry y="60" width="60" height="9" as="geometry" />
        </mxCell>
        <mxCell id="WDnY_UIXsADcIeX3w84D-75" value="" style="shape=partialRectangle;html=1;whiteSpace=wrap;connectable=0;strokeColor=inherit;overflow=hidden;fillColor=none;top=0;left=0;bottom=0;right=0;pointerEvents=1;" vertex="1" parent="WDnY_UIXsADcIeX3w84D-74">
          <mxGeometry width="60" height="9" as="geometry">
            <mxRectangle width="60" height="9" as="alternateBounds" />
          </mxGeometry>
        </mxCell>
        <mxCell id="WDnY_UIXsADcIeX3w84D-76" value="" style="shape=tableRow;horizontal=0;startSize=0;swimlaneHead=0;swimlaneBody=0;strokeColor=inherit;top=0;left=0;bottom=0;right=0;collapsible=0;dropTarget=0;fillColor=none;points=[[0,0.5],[1,0.5]];portConstraint=eastwest;" vertex="1" parent="WDnY_UIXsADcIeX3w84D-61">
          <mxGeometry y="69" width="60" height="11" as="geometry" />
        </mxCell>
        <mxCell id="WDnY_UIXsADcIeX3w84D-77" value="" style="shape=partialRectangle;html=1;whiteSpace=wrap;connectable=0;strokeColor=inherit;overflow=hidden;fillColor=none;top=0;left=0;bottom=0;right=0;pointerEvents=1;" vertex="1" parent="WDnY_UIXsADcIeX3w84D-76">
          <mxGeometry width="60" height="11" as="geometry">
            <mxRectangle width="60" height="11" as="alternateBounds" />
          </mxGeometry>
        </mxCell>
        <mxCell id="WDnY_UIXsADcIeX3w84D-78" value="" style="shape=tableRow;horizontal=0;startSize=0;swimlaneHead=0;swimlaneBody=0;strokeColor=inherit;top=0;left=0;bottom=0;right=0;collapsible=0;dropTarget=0;fillColor=none;points=[[0,0.5],[1,0.5]];portConstraint=eastwest;" vertex="1" parent="WDnY_UIXsADcIeX3w84D-61">
          <mxGeometry y="80" width="60" height="11" as="geometry" />
        </mxCell>
        <mxCell id="WDnY_UIXsADcIeX3w84D-79" value="" style="shape=partialRectangle;html=1;whiteSpace=wrap;connectable=0;strokeColor=inherit;overflow=hidden;fillColor=none;top=0;left=0;bottom=0;right=0;pointerEvents=1;" vertex="1" parent="WDnY_UIXsADcIeX3w84D-78">
          <mxGeometry width="60" height="11" as="geometry">
            <mxRectangle width="60" height="11" as="alternateBounds" />
          </mxGeometry>
        </mxCell>
        <mxCell id="WDnY_UIXsADcIeX3w84D-80" value="" style="shape=tableRow;horizontal=0;startSize=0;swimlaneHead=0;swimlaneBody=0;strokeColor=inherit;top=0;left=0;bottom=0;right=0;collapsible=0;dropTarget=0;fillColor=none;points=[[0,0.5],[1,0.5]];portConstraint=eastwest;" vertex="1" parent="WDnY_UIXsADcIeX3w84D-61">
          <mxGeometry y="91" width="60" height="9" as="geometry" />
        </mxCell>
        <mxCell id="WDnY_UIXsADcIeX3w84D-81" value="" style="shape=partialRectangle;html=1;whiteSpace=wrap;connectable=0;strokeColor=inherit;overflow=hidden;fillColor=none;top=0;left=0;bottom=0;right=0;pointerEvents=1;" vertex="1" parent="WDnY_UIXsADcIeX3w84D-80">
          <mxGeometry width="60" height="9" as="geometry">
            <mxRectangle width="60" height="9" as="alternateBounds" />
          </mxGeometry>
        </mxCell>
        <mxCell id="WDnY_UIXsADcIeX3w84D-82" value="" style="shape=tableRow;horizontal=0;startSize=0;swimlaneHead=0;swimlaneBody=0;strokeColor=inherit;top=0;left=0;bottom=0;right=0;collapsible=0;dropTarget=0;fillColor=none;points=[[0,0.5],[1,0.5]];portConstraint=eastwest;" vertex="1" parent="WDnY_UIXsADcIeX3w84D-61">
          <mxGeometry y="100" width="60" height="10" as="geometry" />
        </mxCell>
        <mxCell id="WDnY_UIXsADcIeX3w84D-83" value="" style="shape=partialRectangle;html=1;whiteSpace=wrap;connectable=0;strokeColor=inherit;overflow=hidden;fillColor=none;top=0;left=0;bottom=0;right=0;pointerEvents=1;" vertex="1" parent="WDnY_UIXsADcIeX3w84D-82">
          <mxGeometry width="60" height="10" as="geometry">
            <mxRectangle width="60" height="10" as="alternateBounds" />
          </mxGeometry>
        </mxCell>
        <mxCell id="WDnY_UIXsADcIeX3w84D-84" value="" style="shape=tableRow;horizontal=0;startSize=0;swimlaneHead=0;swimlaneBody=0;strokeColor=inherit;top=0;left=0;bottom=0;right=0;collapsible=0;dropTarget=0;fillColor=none;points=[[0,0.5],[1,0.5]];portConstraint=eastwest;" vertex="1" parent="WDnY_UIXsADcIeX3w84D-61">
          <mxGeometry y="110" width="60" height="11" as="geometry" />
        </mxCell>
        <mxCell id="WDnY_UIXsADcIeX3w84D-85" value="" style="shape=partialRectangle;html=1;whiteSpace=wrap;connectable=0;strokeColor=inherit;overflow=hidden;fillColor=none;top=0;left=0;bottom=0;right=0;pointerEvents=1;" vertex="1" parent="WDnY_UIXsADcIeX3w84D-84">
          <mxGeometry width="60" height="11" as="geometry">
            <mxRectangle width="60" height="11" as="alternateBounds" />
          </mxGeometry>
        </mxCell>
        <mxCell id="WDnY_UIXsADcIeX3w84D-86" value="" style="shape=tableRow;horizontal=0;startSize=0;swimlaneHead=0;swimlaneBody=0;strokeColor=inherit;top=0;left=0;bottom=0;right=0;collapsible=0;dropTarget=0;fillColor=none;points=[[0,0.5],[1,0.5]];portConstraint=eastwest;" vertex="1" parent="WDnY_UIXsADcIeX3w84D-61">
          <mxGeometry y="121" width="60" height="9" as="geometry" />
        </mxCell>
        <mxCell id="WDnY_UIXsADcIeX3w84D-87" value="" style="shape=partialRectangle;html=1;whiteSpace=wrap;connectable=0;strokeColor=inherit;overflow=hidden;fillColor=none;top=0;left=0;bottom=0;right=0;pointerEvents=1;" vertex="1" parent="WDnY_UIXsADcIeX3w84D-86">
          <mxGeometry width="60" height="9" as="geometry">
            <mxRectangle width="60" height="9" as="alternateBounds" />
          </mxGeometry>
        </mxCell>
        <mxCell id="WDnY_UIXsADcIeX3w84D-88" value="" style="shape=tableRow;horizontal=0;startSize=0;swimlaneHead=0;swimlaneBody=0;strokeColor=inherit;top=0;left=0;bottom=0;right=0;collapsible=0;dropTarget=0;fillColor=none;points=[[0,0.5],[1,0.5]];portConstraint=eastwest;" vertex="1" parent="WDnY_UIXsADcIeX3w84D-61">
          <mxGeometry y="130" width="60" height="10" as="geometry" />
        </mxCell>
        <mxCell id="WDnY_UIXsADcIeX3w84D-89" value="" style="shape=partialRectangle;html=1;whiteSpace=wrap;connectable=0;strokeColor=inherit;overflow=hidden;fillColor=none;top=0;left=0;bottom=0;right=0;pointerEvents=1;" vertex="1" parent="WDnY_UIXsADcIeX3w84D-88">
          <mxGeometry width="60" height="10" as="geometry">
            <mxRectangle width="60" height="10" as="alternateBounds" />
          </mxGeometry>
        </mxCell>
        <mxCell id="WDnY_UIXsADcIeX3w84D-90" value="" style="shape=tableRow;horizontal=0;startSize=0;swimlaneHead=0;swimlaneBody=0;strokeColor=inherit;top=0;left=0;bottom=0;right=0;collapsible=0;dropTarget=0;fillColor=none;points=[[0,0.5],[1,0.5]];portConstraint=eastwest;" vertex="1" parent="WDnY_UIXsADcIeX3w84D-61">
          <mxGeometry y="140" width="60" height="9" as="geometry" />
        </mxCell>
        <mxCell id="WDnY_UIXsADcIeX3w84D-91" value="" style="shape=partialRectangle;html=1;whiteSpace=wrap;connectable=0;strokeColor=inherit;overflow=hidden;fillColor=none;top=0;left=0;bottom=0;right=0;pointerEvents=1;" vertex="1" parent="WDnY_UIXsADcIeX3w84D-90">
          <mxGeometry width="60" height="9" as="geometry">
            <mxRectangle width="60" height="9" as="alternateBounds" />
          </mxGeometry>
        </mxCell>
        <mxCell id="WDnY_UIXsADcIeX3w84D-92" value="" style="shape=tableRow;horizontal=0;startSize=0;swimlaneHead=0;swimlaneBody=0;strokeColor=inherit;top=0;left=0;bottom=0;right=0;collapsible=0;dropTarget=0;fillColor=none;points=[[0,0.5],[1,0.5]];portConstraint=eastwest;" vertex="1" parent="WDnY_UIXsADcIeX3w84D-61">
          <mxGeometry y="149" width="60" height="11" as="geometry" />
        </mxCell>
        <mxCell id="WDnY_UIXsADcIeX3w84D-93" value="" style="shape=partialRectangle;html=1;whiteSpace=wrap;connectable=0;strokeColor=inherit;overflow=hidden;fillColor=none;top=0;left=0;bottom=0;right=0;pointerEvents=1;" vertex="1" parent="WDnY_UIXsADcIeX3w84D-92">
          <mxGeometry width="60" height="11" as="geometry">
            <mxRectangle width="60" height="11" as="alternateBounds" />
          </mxGeometry>
        </mxCell>
        <mxCell id="WDnY_UIXsADcIeX3w84D-94" value="" style="endArrow=none;dashed=1;html=1;dashPattern=1 3;strokeWidth=2;rounded=0;" edge="1" parent="1">
          <mxGeometry width="50" height="50" relative="1" as="geometry">
            <mxPoint x="-336.27" y="685.82" as="sourcePoint" />
            <mxPoint x="-336.27" y="655.82" as="targetPoint" />
          </mxGeometry>
        </mxCell>
        <mxCell id="WDnY_UIXsADcIeX3w84D-95" value="" style="shape=table;startSize=0;container=1;collapsible=0;childLayout=tableLayout;fillColor=#C6C6C7;" vertex="1" parent="1">
          <mxGeometry x="-84" y="690.82" width="18" height="59" as="geometry" />
        </mxCell>
        <mxCell id="WDnY_UIXsADcIeX3w84D-96" value="" style="shape=tableRow;horizontal=0;startSize=0;swimlaneHead=0;swimlaneBody=0;strokeColor=inherit;top=0;left=0;bottom=0;right=0;collapsible=0;dropTarget=0;fillColor=none;points=[[0,0.5],[1,0.5]];portConstraint=eastwest;" vertex="1" parent="WDnY_UIXsADcIeX3w84D-95">
          <mxGeometry width="18" height="11" as="geometry" />
        </mxCell>
        <mxCell id="WDnY_UIXsADcIeX3w84D-97" value="" style="shape=partialRectangle;html=1;whiteSpace=wrap;connectable=0;strokeColor=inherit;overflow=hidden;fillColor=none;top=0;left=0;bottom=0;right=0;pointerEvents=1;" vertex="1" parent="WDnY_UIXsADcIeX3w84D-96">
          <mxGeometry width="18" height="11" as="geometry">
            <mxRectangle width="18" height="11" as="alternateBounds" />
          </mxGeometry>
        </mxCell>
        <mxCell id="WDnY_UIXsADcIeX3w84D-98" value="" style="shape=tableRow;horizontal=0;startSize=0;swimlaneHead=0;swimlaneBody=0;strokeColor=inherit;top=0;left=0;bottom=0;right=0;collapsible=0;dropTarget=0;fillColor=none;points=[[0,0.5],[1,0.5]];portConstraint=eastwest;" vertex="1" parent="WDnY_UIXsADcIeX3w84D-95">
          <mxGeometry y="11" width="18" height="9" as="geometry" />
        </mxCell>
        <mxCell id="WDnY_UIXsADcIeX3w84D-99" value="" style="shape=partialRectangle;html=1;whiteSpace=wrap;connectable=0;strokeColor=inherit;overflow=hidden;fillColor=none;top=0;left=0;bottom=0;right=0;pointerEvents=1;" vertex="1" parent="WDnY_UIXsADcIeX3w84D-98">
          <mxGeometry width="18" height="9" as="geometry">
            <mxRectangle width="18" height="9" as="alternateBounds" />
          </mxGeometry>
        </mxCell>
        <mxCell id="WDnY_UIXsADcIeX3w84D-100" value="" style="shape=tableRow;horizontal=0;startSize=0;swimlaneHead=0;swimlaneBody=0;strokeColor=inherit;top=0;left=0;bottom=0;right=0;collapsible=0;dropTarget=0;fillColor=none;points=[[0,0.5],[1,0.5]];portConstraint=eastwest;" vertex="1" parent="WDnY_UIXsADcIeX3w84D-95">
          <mxGeometry y="20" width="18" height="10" as="geometry" />
        </mxCell>
        <mxCell id="WDnY_UIXsADcIeX3w84D-101" value="" style="shape=partialRectangle;html=1;whiteSpace=wrap;connectable=0;strokeColor=inherit;overflow=hidden;fillColor=none;top=0;left=0;bottom=0;right=0;pointerEvents=1;" vertex="1" parent="WDnY_UIXsADcIeX3w84D-100">
          <mxGeometry width="18" height="10" as="geometry">
            <mxRectangle width="18" height="10" as="alternateBounds" />
          </mxGeometry>
        </mxCell>
        <mxCell id="WDnY_UIXsADcIeX3w84D-102" value="" style="shape=tableRow;horizontal=0;startSize=0;swimlaneHead=0;swimlaneBody=0;strokeColor=inherit;top=0;left=0;bottom=0;right=0;collapsible=0;dropTarget=0;fillColor=none;points=[[0,0.5],[1,0.5]];portConstraint=eastwest;" vertex="1" parent="WDnY_UIXsADcIeX3w84D-95">
          <mxGeometry y="30" width="18" height="11" as="geometry" />
        </mxCell>
        <mxCell id="WDnY_UIXsADcIeX3w84D-103" value="" style="shape=partialRectangle;html=1;whiteSpace=wrap;connectable=0;strokeColor=inherit;overflow=hidden;fillColor=none;top=0;left=0;bottom=0;right=0;pointerEvents=1;" vertex="1" parent="WDnY_UIXsADcIeX3w84D-102">
          <mxGeometry width="18" height="11" as="geometry">
            <mxRectangle width="18" height="11" as="alternateBounds" />
          </mxGeometry>
        </mxCell>
        <mxCell id="WDnY_UIXsADcIeX3w84D-104" value="" style="shape=tableRow;horizontal=0;startSize=0;swimlaneHead=0;swimlaneBody=0;strokeColor=inherit;top=0;left=0;bottom=0;right=0;collapsible=0;dropTarget=0;fillColor=none;points=[[0,0.5],[1,0.5]];portConstraint=eastwest;" vertex="1" parent="WDnY_UIXsADcIeX3w84D-95">
          <mxGeometry y="41" width="18" height="9" as="geometry" />
        </mxCell>
        <mxCell id="WDnY_UIXsADcIeX3w84D-105" value="" style="shape=partialRectangle;html=1;whiteSpace=wrap;connectable=0;strokeColor=inherit;overflow=hidden;fillColor=none;top=0;left=0;bottom=0;right=0;pointerEvents=1;" vertex="1" parent="WDnY_UIXsADcIeX3w84D-104">
          <mxGeometry width="18" height="9" as="geometry">
            <mxRectangle width="18" height="9" as="alternateBounds" />
          </mxGeometry>
        </mxCell>
        <mxCell id="WDnY_UIXsADcIeX3w84D-106" value="" style="shape=tableRow;horizontal=0;startSize=0;swimlaneHead=0;swimlaneBody=0;strokeColor=inherit;top=0;left=0;bottom=0;right=0;collapsible=0;dropTarget=0;fillColor=none;points=[[0,0.5],[1,0.5]];portConstraint=eastwest;" vertex="1" parent="WDnY_UIXsADcIeX3w84D-95">
          <mxGeometry y="50" width="18" height="9" as="geometry" />
        </mxCell>
        <mxCell id="WDnY_UIXsADcIeX3w84D-107" value="" style="shape=partialRectangle;html=1;whiteSpace=wrap;connectable=0;strokeColor=inherit;overflow=hidden;fillColor=none;top=0;left=0;bottom=0;right=0;pointerEvents=1;" vertex="1" parent="WDnY_UIXsADcIeX3w84D-106">
          <mxGeometry width="18" height="9" as="geometry">
            <mxRectangle width="18" height="9" as="alternateBounds" />
          </mxGeometry>
        </mxCell>
        <mxCell id="WDnY_UIXsADcIeX3w84D-108" value="" style="rounded=0;whiteSpace=wrap;html=1;rotation=90;dashed=1;strokeWidth=4;fillColor=none;" vertex="1" parent="1">
          <mxGeometry x="-158.75" y="528.12" width="167.5" height="53.75" as="geometry" />
        </mxCell>
        <mxCell id="WDnY_UIXsADcIeX3w84D-109" value="" style="shape=table;startSize=0;container=1;collapsible=0;childLayout=tableLayout;fillColor=#C6C6C7;" vertex="1" parent="1">
          <mxGeometry x="-1037" y="492.0000000000001" width="60" height="160" as="geometry" />
        </mxCell>
        <mxCell id="WDnY_UIXsADcIeX3w84D-110" value="" style="shape=tableRow;horizontal=0;startSize=0;swimlaneHead=0;swimlaneBody=0;strokeColor=inherit;top=0;left=0;bottom=0;right=0;collapsible=0;dropTarget=0;fillColor=none;points=[[0,0.5],[1,0.5]];portConstraint=eastwest;" vertex="1" parent="WDnY_UIXsADcIeX3w84D-109">
          <mxGeometry width="60" height="11" as="geometry" />
        </mxCell>
        <mxCell id="WDnY_UIXsADcIeX3w84D-111" value="" style="shape=partialRectangle;html=1;whiteSpace=wrap;connectable=0;strokeColor=inherit;overflow=hidden;fillColor=none;top=0;left=0;bottom=0;right=0;pointerEvents=1;" vertex="1" parent="WDnY_UIXsADcIeX3w84D-110">
          <mxGeometry width="60" height="11" as="geometry">
            <mxRectangle width="60" height="11" as="alternateBounds" />
          </mxGeometry>
        </mxCell>
        <mxCell id="WDnY_UIXsADcIeX3w84D-112" value="" style="shape=tableRow;horizontal=0;startSize=0;swimlaneHead=0;swimlaneBody=0;strokeColor=inherit;top=0;left=0;bottom=0;right=0;collapsible=0;dropTarget=0;fillColor=none;points=[[0,0.5],[1,0.5]];portConstraint=eastwest;" vertex="1" parent="WDnY_UIXsADcIeX3w84D-109">
          <mxGeometry y="11" width="60" height="9" as="geometry" />
        </mxCell>
        <mxCell id="WDnY_UIXsADcIeX3w84D-113" value="" style="shape=partialRectangle;html=1;whiteSpace=wrap;connectable=0;strokeColor=inherit;overflow=hidden;fillColor=none;top=0;left=0;bottom=0;right=0;pointerEvents=1;" vertex="1" parent="WDnY_UIXsADcIeX3w84D-112">
          <mxGeometry width="60" height="9" as="geometry">
            <mxRectangle width="60" height="9" as="alternateBounds" />
          </mxGeometry>
        </mxCell>
        <mxCell id="WDnY_UIXsADcIeX3w84D-114" value="" style="shape=tableRow;horizontal=0;startSize=0;swimlaneHead=0;swimlaneBody=0;strokeColor=inherit;top=0;left=0;bottom=0;right=0;collapsible=0;dropTarget=0;fillColor=none;points=[[0,0.5],[1,0.5]];portConstraint=eastwest;" vertex="1" parent="WDnY_UIXsADcIeX3w84D-109">
          <mxGeometry y="20" width="60" height="10" as="geometry" />
        </mxCell>
        <mxCell id="WDnY_UIXsADcIeX3w84D-115" value="" style="shape=partialRectangle;html=1;whiteSpace=wrap;connectable=0;strokeColor=inherit;overflow=hidden;fillColor=none;top=0;left=0;bottom=0;right=0;pointerEvents=1;" vertex="1" parent="WDnY_UIXsADcIeX3w84D-114">
          <mxGeometry width="60" height="10" as="geometry">
            <mxRectangle width="60" height="10" as="alternateBounds" />
          </mxGeometry>
        </mxCell>
        <mxCell id="WDnY_UIXsADcIeX3w84D-116" value="" style="shape=tableRow;horizontal=0;startSize=0;swimlaneHead=0;swimlaneBody=0;strokeColor=inherit;top=0;left=0;bottom=0;right=0;collapsible=0;dropTarget=0;fillColor=none;points=[[0,0.5],[1,0.5]];portConstraint=eastwest;" vertex="1" parent="WDnY_UIXsADcIeX3w84D-109">
          <mxGeometry y="30" width="60" height="11" as="geometry" />
        </mxCell>
        <mxCell id="WDnY_UIXsADcIeX3w84D-117" value="" style="shape=partialRectangle;html=1;whiteSpace=wrap;connectable=0;strokeColor=inherit;overflow=hidden;fillColor=none;top=0;left=0;bottom=0;right=0;pointerEvents=1;" vertex="1" parent="WDnY_UIXsADcIeX3w84D-116">
          <mxGeometry width="60" height="11" as="geometry">
            <mxRectangle width="60" height="11" as="alternateBounds" />
          </mxGeometry>
        </mxCell>
        <mxCell id="WDnY_UIXsADcIeX3w84D-118" value="" style="shape=tableRow;horizontal=0;startSize=0;swimlaneHead=0;swimlaneBody=0;strokeColor=inherit;top=0;left=0;bottom=0;right=0;collapsible=0;dropTarget=0;fillColor=none;points=[[0,0.5],[1,0.5]];portConstraint=eastwest;" vertex="1" parent="WDnY_UIXsADcIeX3w84D-109">
          <mxGeometry y="41" width="60" height="9" as="geometry" />
        </mxCell>
        <mxCell id="WDnY_UIXsADcIeX3w84D-119" value="" style="shape=partialRectangle;html=1;whiteSpace=wrap;connectable=0;strokeColor=inherit;overflow=hidden;fillColor=none;top=0;left=0;bottom=0;right=0;pointerEvents=1;" vertex="1" parent="WDnY_UIXsADcIeX3w84D-118">
          <mxGeometry width="60" height="9" as="geometry">
            <mxRectangle width="60" height="9" as="alternateBounds" />
          </mxGeometry>
        </mxCell>
        <mxCell id="WDnY_UIXsADcIeX3w84D-120" value="" style="shape=tableRow;horizontal=0;startSize=0;swimlaneHead=0;swimlaneBody=0;strokeColor=inherit;top=0;left=0;bottom=0;right=0;collapsible=0;dropTarget=0;fillColor=none;points=[[0,0.5],[1,0.5]];portConstraint=eastwest;" vertex="1" parent="WDnY_UIXsADcIeX3w84D-109">
          <mxGeometry y="50" width="60" height="10" as="geometry" />
        </mxCell>
        <mxCell id="WDnY_UIXsADcIeX3w84D-121" value="" style="shape=partialRectangle;html=1;whiteSpace=wrap;connectable=0;strokeColor=inherit;overflow=hidden;fillColor=none;top=0;left=0;bottom=0;right=0;pointerEvents=1;" vertex="1" parent="WDnY_UIXsADcIeX3w84D-120">
          <mxGeometry width="60" height="10" as="geometry">
            <mxRectangle width="60" height="10" as="alternateBounds" />
          </mxGeometry>
        </mxCell>
        <mxCell id="WDnY_UIXsADcIeX3w84D-122" value="" style="shape=tableRow;horizontal=0;startSize=0;swimlaneHead=0;swimlaneBody=0;strokeColor=inherit;top=0;left=0;bottom=0;right=0;collapsible=0;dropTarget=0;fillColor=none;points=[[0,0.5],[1,0.5]];portConstraint=eastwest;" vertex="1" parent="WDnY_UIXsADcIeX3w84D-109">
          <mxGeometry y="60" width="60" height="9" as="geometry" />
        </mxCell>
        <mxCell id="WDnY_UIXsADcIeX3w84D-123" value="" style="shape=partialRectangle;html=1;whiteSpace=wrap;connectable=0;strokeColor=inherit;overflow=hidden;fillColor=none;top=0;left=0;bottom=0;right=0;pointerEvents=1;" vertex="1" parent="WDnY_UIXsADcIeX3w84D-122">
          <mxGeometry width="60" height="9" as="geometry">
            <mxRectangle width="60" height="9" as="alternateBounds" />
          </mxGeometry>
        </mxCell>
        <mxCell id="WDnY_UIXsADcIeX3w84D-124" value="" style="shape=tableRow;horizontal=0;startSize=0;swimlaneHead=0;swimlaneBody=0;strokeColor=inherit;top=0;left=0;bottom=0;right=0;collapsible=0;dropTarget=0;fillColor=none;points=[[0,0.5],[1,0.5]];portConstraint=eastwest;" vertex="1" parent="WDnY_UIXsADcIeX3w84D-109">
          <mxGeometry y="69" width="60" height="11" as="geometry" />
        </mxCell>
        <mxCell id="WDnY_UIXsADcIeX3w84D-125" value="" style="shape=partialRectangle;html=1;whiteSpace=wrap;connectable=0;strokeColor=inherit;overflow=hidden;fillColor=none;top=0;left=0;bottom=0;right=0;pointerEvents=1;" vertex="1" parent="WDnY_UIXsADcIeX3w84D-124">
          <mxGeometry width="60" height="11" as="geometry">
            <mxRectangle width="60" height="11" as="alternateBounds" />
          </mxGeometry>
        </mxCell>
        <mxCell id="WDnY_UIXsADcIeX3w84D-126" value="" style="shape=tableRow;horizontal=0;startSize=0;swimlaneHead=0;swimlaneBody=0;strokeColor=inherit;top=0;left=0;bottom=0;right=0;collapsible=0;dropTarget=0;fillColor=none;points=[[0,0.5],[1,0.5]];portConstraint=eastwest;" vertex="1" parent="WDnY_UIXsADcIeX3w84D-109">
          <mxGeometry y="80" width="60" height="11" as="geometry" />
        </mxCell>
        <mxCell id="WDnY_UIXsADcIeX3w84D-127" value="" style="shape=partialRectangle;html=1;whiteSpace=wrap;connectable=0;strokeColor=inherit;overflow=hidden;fillColor=none;top=0;left=0;bottom=0;right=0;pointerEvents=1;" vertex="1" parent="WDnY_UIXsADcIeX3w84D-126">
          <mxGeometry width="60" height="11" as="geometry">
            <mxRectangle width="60" height="11" as="alternateBounds" />
          </mxGeometry>
        </mxCell>
        <mxCell id="WDnY_UIXsADcIeX3w84D-128" value="" style="shape=tableRow;horizontal=0;startSize=0;swimlaneHead=0;swimlaneBody=0;strokeColor=inherit;top=0;left=0;bottom=0;right=0;collapsible=0;dropTarget=0;fillColor=none;points=[[0,0.5],[1,0.5]];portConstraint=eastwest;" vertex="1" parent="WDnY_UIXsADcIeX3w84D-109">
          <mxGeometry y="91" width="60" height="9" as="geometry" />
        </mxCell>
        <mxCell id="WDnY_UIXsADcIeX3w84D-129" value="" style="shape=partialRectangle;html=1;whiteSpace=wrap;connectable=0;strokeColor=inherit;overflow=hidden;fillColor=none;top=0;left=0;bottom=0;right=0;pointerEvents=1;" vertex="1" parent="WDnY_UIXsADcIeX3w84D-128">
          <mxGeometry width="60" height="9" as="geometry">
            <mxRectangle width="60" height="9" as="alternateBounds" />
          </mxGeometry>
        </mxCell>
        <mxCell id="WDnY_UIXsADcIeX3w84D-130" value="" style="shape=tableRow;horizontal=0;startSize=0;swimlaneHead=0;swimlaneBody=0;strokeColor=inherit;top=0;left=0;bottom=0;right=0;collapsible=0;dropTarget=0;fillColor=none;points=[[0,0.5],[1,0.5]];portConstraint=eastwest;" vertex="1" parent="WDnY_UIXsADcIeX3w84D-109">
          <mxGeometry y="100" width="60" height="10" as="geometry" />
        </mxCell>
        <mxCell id="WDnY_UIXsADcIeX3w84D-131" value="" style="shape=partialRectangle;html=1;whiteSpace=wrap;connectable=0;strokeColor=inherit;overflow=hidden;fillColor=none;top=0;left=0;bottom=0;right=0;pointerEvents=1;" vertex="1" parent="WDnY_UIXsADcIeX3w84D-130">
          <mxGeometry width="60" height="10" as="geometry">
            <mxRectangle width="60" height="10" as="alternateBounds" />
          </mxGeometry>
        </mxCell>
        <mxCell id="WDnY_UIXsADcIeX3w84D-132" value="" style="shape=tableRow;horizontal=0;startSize=0;swimlaneHead=0;swimlaneBody=0;strokeColor=inherit;top=0;left=0;bottom=0;right=0;collapsible=0;dropTarget=0;fillColor=none;points=[[0,0.5],[1,0.5]];portConstraint=eastwest;" vertex="1" parent="WDnY_UIXsADcIeX3w84D-109">
          <mxGeometry y="110" width="60" height="11" as="geometry" />
        </mxCell>
        <mxCell id="WDnY_UIXsADcIeX3w84D-133" value="" style="shape=partialRectangle;html=1;whiteSpace=wrap;connectable=0;strokeColor=inherit;overflow=hidden;fillColor=none;top=0;left=0;bottom=0;right=0;pointerEvents=1;" vertex="1" parent="WDnY_UIXsADcIeX3w84D-132">
          <mxGeometry width="60" height="11" as="geometry">
            <mxRectangle width="60" height="11" as="alternateBounds" />
          </mxGeometry>
        </mxCell>
        <mxCell id="WDnY_UIXsADcIeX3w84D-134" value="" style="shape=tableRow;horizontal=0;startSize=0;swimlaneHead=0;swimlaneBody=0;strokeColor=inherit;top=0;left=0;bottom=0;right=0;collapsible=0;dropTarget=0;fillColor=none;points=[[0,0.5],[1,0.5]];portConstraint=eastwest;" vertex="1" parent="WDnY_UIXsADcIeX3w84D-109">
          <mxGeometry y="121" width="60" height="9" as="geometry" />
        </mxCell>
        <mxCell id="WDnY_UIXsADcIeX3w84D-135" value="" style="shape=partialRectangle;html=1;whiteSpace=wrap;connectable=0;strokeColor=inherit;overflow=hidden;fillColor=none;top=0;left=0;bottom=0;right=0;pointerEvents=1;" vertex="1" parent="WDnY_UIXsADcIeX3w84D-134">
          <mxGeometry width="60" height="9" as="geometry">
            <mxRectangle width="60" height="9" as="alternateBounds" />
          </mxGeometry>
        </mxCell>
        <mxCell id="WDnY_UIXsADcIeX3w84D-136" value="" style="shape=tableRow;horizontal=0;startSize=0;swimlaneHead=0;swimlaneBody=0;strokeColor=inherit;top=0;left=0;bottom=0;right=0;collapsible=0;dropTarget=0;fillColor=none;points=[[0,0.5],[1,0.5]];portConstraint=eastwest;" vertex="1" parent="WDnY_UIXsADcIeX3w84D-109">
          <mxGeometry y="130" width="60" height="10" as="geometry" />
        </mxCell>
        <mxCell id="WDnY_UIXsADcIeX3w84D-137" value="" style="shape=partialRectangle;html=1;whiteSpace=wrap;connectable=0;strokeColor=inherit;overflow=hidden;fillColor=none;top=0;left=0;bottom=0;right=0;pointerEvents=1;" vertex="1" parent="WDnY_UIXsADcIeX3w84D-136">
          <mxGeometry width="60" height="10" as="geometry">
            <mxRectangle width="60" height="10" as="alternateBounds" />
          </mxGeometry>
        </mxCell>
        <mxCell id="WDnY_UIXsADcIeX3w84D-138" value="" style="shape=tableRow;horizontal=0;startSize=0;swimlaneHead=0;swimlaneBody=0;strokeColor=inherit;top=0;left=0;bottom=0;right=0;collapsible=0;dropTarget=0;fillColor=none;points=[[0,0.5],[1,0.5]];portConstraint=eastwest;" vertex="1" parent="WDnY_UIXsADcIeX3w84D-109">
          <mxGeometry y="140" width="60" height="9" as="geometry" />
        </mxCell>
        <mxCell id="WDnY_UIXsADcIeX3w84D-139" value="" style="shape=partialRectangle;html=1;whiteSpace=wrap;connectable=0;strokeColor=inherit;overflow=hidden;fillColor=none;top=0;left=0;bottom=0;right=0;pointerEvents=1;" vertex="1" parent="WDnY_UIXsADcIeX3w84D-138">
          <mxGeometry width="60" height="9" as="geometry">
            <mxRectangle width="60" height="9" as="alternateBounds" />
          </mxGeometry>
        </mxCell>
        <mxCell id="WDnY_UIXsADcIeX3w84D-140" value="" style="shape=tableRow;horizontal=0;startSize=0;swimlaneHead=0;swimlaneBody=0;strokeColor=inherit;top=0;left=0;bottom=0;right=0;collapsible=0;dropTarget=0;fillColor=none;points=[[0,0.5],[1,0.5]];portConstraint=eastwest;" vertex="1" parent="WDnY_UIXsADcIeX3w84D-109">
          <mxGeometry y="149" width="60" height="11" as="geometry" />
        </mxCell>
        <mxCell id="WDnY_UIXsADcIeX3w84D-141" value="" style="shape=partialRectangle;html=1;whiteSpace=wrap;connectable=0;strokeColor=inherit;overflow=hidden;fillColor=none;top=0;left=0;bottom=0;right=0;pointerEvents=1;" vertex="1" parent="WDnY_UIXsADcIeX3w84D-140">
          <mxGeometry width="60" height="11" as="geometry">
            <mxRectangle width="60" height="11" as="alternateBounds" />
          </mxGeometry>
        </mxCell>
        <mxCell id="WDnY_UIXsADcIeX3w84D-142" value="" style="shape=table;startSize=0;container=1;collapsible=0;childLayout=tableLayout;fillColor=#C6C6C7;" vertex="1" parent="1">
          <mxGeometry x="-1037" y="687.82" width="60" height="59" as="geometry" />
        </mxCell>
        <mxCell id="WDnY_UIXsADcIeX3w84D-143" value="" style="shape=tableRow;horizontal=0;startSize=0;swimlaneHead=0;swimlaneBody=0;strokeColor=inherit;top=0;left=0;bottom=0;right=0;collapsible=0;dropTarget=0;fillColor=none;points=[[0,0.5],[1,0.5]];portConstraint=eastwest;" vertex="1" parent="WDnY_UIXsADcIeX3w84D-142">
          <mxGeometry width="60" height="11" as="geometry" />
        </mxCell>
        <mxCell id="WDnY_UIXsADcIeX3w84D-144" value="" style="shape=partialRectangle;html=1;whiteSpace=wrap;connectable=0;strokeColor=inherit;overflow=hidden;fillColor=none;top=0;left=0;bottom=0;right=0;pointerEvents=1;" vertex="1" parent="WDnY_UIXsADcIeX3w84D-143">
          <mxGeometry width="60" height="11" as="geometry">
            <mxRectangle width="60" height="11" as="alternateBounds" />
          </mxGeometry>
        </mxCell>
        <mxCell id="WDnY_UIXsADcIeX3w84D-145" value="" style="shape=tableRow;horizontal=0;startSize=0;swimlaneHead=0;swimlaneBody=0;strokeColor=inherit;top=0;left=0;bottom=0;right=0;collapsible=0;dropTarget=0;fillColor=none;points=[[0,0.5],[1,0.5]];portConstraint=eastwest;" vertex="1" parent="WDnY_UIXsADcIeX3w84D-142">
          <mxGeometry y="11" width="60" height="9" as="geometry" />
        </mxCell>
        <mxCell id="WDnY_UIXsADcIeX3w84D-146" value="" style="shape=partialRectangle;html=1;whiteSpace=wrap;connectable=0;strokeColor=inherit;overflow=hidden;fillColor=none;top=0;left=0;bottom=0;right=0;pointerEvents=1;" vertex="1" parent="WDnY_UIXsADcIeX3w84D-145">
          <mxGeometry width="60" height="9" as="geometry">
            <mxRectangle width="60" height="9" as="alternateBounds" />
          </mxGeometry>
        </mxCell>
        <mxCell id="WDnY_UIXsADcIeX3w84D-147" value="" style="shape=tableRow;horizontal=0;startSize=0;swimlaneHead=0;swimlaneBody=0;strokeColor=inherit;top=0;left=0;bottom=0;right=0;collapsible=0;dropTarget=0;fillColor=none;points=[[0,0.5],[1,0.5]];portConstraint=eastwest;" vertex="1" parent="WDnY_UIXsADcIeX3w84D-142">
          <mxGeometry y="20" width="60" height="10" as="geometry" />
        </mxCell>
        <mxCell id="WDnY_UIXsADcIeX3w84D-148" value="" style="shape=partialRectangle;html=1;whiteSpace=wrap;connectable=0;strokeColor=inherit;overflow=hidden;fillColor=none;top=0;left=0;bottom=0;right=0;pointerEvents=1;" vertex="1" parent="WDnY_UIXsADcIeX3w84D-147">
          <mxGeometry width="60" height="10" as="geometry">
            <mxRectangle width="60" height="10" as="alternateBounds" />
          </mxGeometry>
        </mxCell>
        <mxCell id="WDnY_UIXsADcIeX3w84D-149" value="" style="shape=tableRow;horizontal=0;startSize=0;swimlaneHead=0;swimlaneBody=0;strokeColor=inherit;top=0;left=0;bottom=0;right=0;collapsible=0;dropTarget=0;fillColor=none;points=[[0,0.5],[1,0.5]];portConstraint=eastwest;" vertex="1" parent="WDnY_UIXsADcIeX3w84D-142">
          <mxGeometry y="30" width="60" height="11" as="geometry" />
        </mxCell>
        <mxCell id="WDnY_UIXsADcIeX3w84D-150" value="" style="shape=partialRectangle;html=1;whiteSpace=wrap;connectable=0;strokeColor=inherit;overflow=hidden;fillColor=none;top=0;left=0;bottom=0;right=0;pointerEvents=1;" vertex="1" parent="WDnY_UIXsADcIeX3w84D-149">
          <mxGeometry width="60" height="11" as="geometry">
            <mxRectangle width="60" height="11" as="alternateBounds" />
          </mxGeometry>
        </mxCell>
        <mxCell id="WDnY_UIXsADcIeX3w84D-151" value="" style="shape=tableRow;horizontal=0;startSize=0;swimlaneHead=0;swimlaneBody=0;strokeColor=inherit;top=0;left=0;bottom=0;right=0;collapsible=0;dropTarget=0;fillColor=none;points=[[0,0.5],[1,0.5]];portConstraint=eastwest;" vertex="1" parent="WDnY_UIXsADcIeX3w84D-142">
          <mxGeometry y="41" width="60" height="9" as="geometry" />
        </mxCell>
        <mxCell id="WDnY_UIXsADcIeX3w84D-152" value="" style="shape=partialRectangle;html=1;whiteSpace=wrap;connectable=0;strokeColor=inherit;overflow=hidden;fillColor=none;top=0;left=0;bottom=0;right=0;pointerEvents=1;" vertex="1" parent="WDnY_UIXsADcIeX3w84D-151">
          <mxGeometry width="60" height="9" as="geometry">
            <mxRectangle width="60" height="9" as="alternateBounds" />
          </mxGeometry>
        </mxCell>
        <mxCell id="WDnY_UIXsADcIeX3w84D-153" value="" style="shape=tableRow;horizontal=0;startSize=0;swimlaneHead=0;swimlaneBody=0;strokeColor=inherit;top=0;left=0;bottom=0;right=0;collapsible=0;dropTarget=0;fillColor=none;points=[[0,0.5],[1,0.5]];portConstraint=eastwest;" vertex="1" parent="WDnY_UIXsADcIeX3w84D-142">
          <mxGeometry y="50" width="60" height="9" as="geometry" />
        </mxCell>
        <mxCell id="WDnY_UIXsADcIeX3w84D-154" value="" style="shape=partialRectangle;html=1;whiteSpace=wrap;connectable=0;strokeColor=inherit;overflow=hidden;fillColor=none;top=0;left=0;bottom=0;right=0;pointerEvents=1;" vertex="1" parent="WDnY_UIXsADcIeX3w84D-153">
          <mxGeometry width="60" height="9" as="geometry">
            <mxRectangle width="60" height="9" as="alternateBounds" />
          </mxGeometry>
        </mxCell>
        <mxCell id="WDnY_UIXsADcIeX3w84D-155" value="" style="endArrow=none;dashed=1;html=1;dashPattern=1 3;strokeWidth=2;rounded=0;" edge="1" parent="1">
          <mxGeometry width="50" height="50" relative="1" as="geometry">
            <mxPoint x="-1007.43" y="682.5" as="sourcePoint" />
            <mxPoint x="-1007.43" y="652.5" as="targetPoint" />
          </mxGeometry>
        </mxCell>
        <mxCell id="WDnY_UIXsADcIeX3w84D-156" value="" style="endArrow=classic;html=1;rounded=0;strokeWidth=4;entryX=0;entryY=1;entryDx=0;entryDy=0;" edge="1" parent="1" target="WDnY_UIXsADcIeX3w84D-6">
          <mxGeometry width="50" height="50" relative="1" as="geometry">
            <mxPoint x="-836" y="530" as="sourcePoint" />
            <mxPoint x="-806" y="500" as="targetPoint" />
          </mxGeometry>
        </mxCell>
        <mxCell id="WDnY_UIXsADcIeX3w84D-157" value="" style="endArrow=classic;html=1;rounded=0;strokeWidth=4;entryX=0;entryY=1;entryDx=0;entryDy=0;" edge="1" parent="1">
          <mxGeometry width="50" height="50" relative="1" as="geometry">
            <mxPoint x="-632" y="495" as="sourcePoint" />
            <mxPoint x="-600" y="495" as="targetPoint" />
          </mxGeometry>
        </mxCell>
        <mxCell id="WDnY_UIXsADcIeX3w84D-158" value="" style="endArrow=classic;html=1;rounded=0;strokeWidth=4;entryX=0;entryY=1;entryDx=0;entryDy=0;" edge="1" parent="1">
          <mxGeometry width="50" height="50" relative="1" as="geometry">
            <mxPoint x="-632" y="565" as="sourcePoint" />
            <mxPoint x="-600" y="565" as="targetPoint" />
          </mxGeometry>
        </mxCell>
        <mxCell id="WDnY_UIXsADcIeX3w84D-159" value="" style="endArrow=classic;html=1;rounded=0;strokeWidth=4;entryX=0;entryY=1;entryDx=0;entryDy=0;" edge="1" parent="1">
          <mxGeometry width="50" height="50" relative="1" as="geometry">
            <mxPoint x="-414" y="532" as="sourcePoint" />
            <mxPoint x="-382" y="532" as="targetPoint" />
          </mxGeometry>
        </mxCell>
        <mxCell id="WDnY_UIXsADcIeX3w84D-160" value="" style="endArrow=classic;html=1;rounded=0;strokeWidth=4;entryX=0;entryY=1;entryDx=0;entryDy=0;" edge="1" parent="1">
          <mxGeometry width="50" height="50" relative="1" as="geometry">
            <mxPoint x="-298" y="532" as="sourcePoint" />
            <mxPoint x="-266" y="532" as="targetPoint" />
          </mxGeometry>
        </mxCell>
        <mxCell id="WDnY_UIXsADcIeX3w84D-161" value="" style="endArrow=classic;html=1;rounded=0;strokeWidth=4;entryX=0;entryY=1;entryDx=0;entryDy=0;" edge="1" parent="1">
          <mxGeometry width="50" height="50" relative="1" as="geometry">
            <mxPoint x="-152" y="532" as="sourcePoint" />
            <mxPoint x="-120" y="532" as="targetPoint" />
          </mxGeometry>
        </mxCell>
        <mxCell id="WDnY_UIXsADcIeX3w84D-162" value="" style="endArrow=classic;html=1;rounded=0;strokeWidth=4;entryX=0;entryY=1;entryDx=0;entryDy=0;" edge="1" parent="1">
          <mxGeometry width="50" height="50" relative="1" as="geometry">
            <mxPoint x="-38" y="532" as="sourcePoint" />
            <mxPoint x="-6" y="532" as="targetPoint" />
          </mxGeometry>
        </mxCell>
        <mxCell id="WDnY_UIXsADcIeX3w84D-163" value="&lt;font style=&quot;font-size: 12px;&quot;&gt;$$\textbf{p}$$&lt;/font&gt;" style="text;whiteSpace=wrap;html=1;" vertex="1" parent="1">
          <mxGeometry x="-1013.15" y="450.5" width="20.29" height="40" as="geometry" />
        </mxCell>
        <mxCell id="WDnY_UIXsADcIeX3w84D-164" value="&lt;font style=&quot;font-size: 12px;&quot;&gt;$$(n,k)$$&lt;/font&gt;" style="text;whiteSpace=wrap;html=1;" vertex="1" parent="1">
          <mxGeometry x="-976" y="576.36" width="40" height="50" as="geometry" />
        </mxCell>
        <mxCell id="WDnY_UIXsADcIeX3w84D-165" value="&lt;font style=&quot;font-size: 12px;&quot;&gt;$$(m,1)$$&lt;/font&gt;" style="text;whiteSpace=wrap;html=1;" vertex="1" parent="1">
          <mxGeometry x="-17.25" y="545.82" width="40" height="50" as="geometry" />
        </mxCell>
        <mxCell id="WDnY_UIXsADcIeX3w84D-167" value="" style="curved=1;endArrow=classic;html=1;rounded=0;strokeWidth=5;" edge="1" parent="1">
          <mxGeometry width="50" height="50" relative="1" as="geometry">
            <mxPoint x="-124" y="670.3199999999999" as="sourcePoint" />
            <mxPoint x="-100" y="740.3199999999999" as="targetPoint" />
            <Array as="points">
              <mxPoint x="-200" y="745.3199999999999" />
              <mxPoint x="-150" y="760" />
            </Array>
          </mxGeometry>
        </mxCell>
        <mxCell id="WDnY_UIXsADcIeX3w84D-168" value="$$[::-1]$$" style="text;html=1;align=center;verticalAlign=middle;whiteSpace=wrap;rounded=0;" vertex="1" parent="1">
          <mxGeometry x="-150" y="690.8199999999999" width="60" height="30" as="geometry" />
        </mxCell>
      </root>
    </mxGraphModel>
  </diagram>
</mxfile>
